<?xml version="1.0" standalone="no"?>
<!DOCTYPE svg PUBLIC "-//W3C//DTD SVG 1.1//EN" "http://www.w3.org/Graphics/SVG/1.1/DTD/svg11.dtd" >
<svg xmlns="http://www.w3.org/2000/svg" xmlns:xlink="http://www.w3.org/1999/xlink" version="1.1">
<metadata></metadata>
<defs>
<font id="samsungone800" horiz-adv-x="1432" >
<font-face units-per-em="2048" ascent="1588" descent="-460" />
<missing-glyph horiz-adv-x="408" />
<glyph unicode="&#xfb01;" horiz-adv-x="1312" d="M10 858v234h168v82q0 190 115 295t327 105q68 0 122 -10v-236q-58 8 -122 8q-172 0 -172 -162v-82h256v-234h-256v-858h-272v858h-166zM866 1388q0 74 43 115t119 41t119 -41t43 -113q0 -74 -43 -115t-119 -41t-119 41t-43 113zM892 0v1092h272v-1092h-272z" />
<glyph unicode="&#xfb02;" horiz-adv-x="1396" d="M10 858v234h168v82q0 190 115 295t327 105q68 0 122 -10v-236q-58 8 -122 8q-172 0 -172 -162v-82h256v-234h-256v-858h-272v858h-166zM884 278v1262h272v-1202q0 -58 22 -84t74 -26q32 0 70 6l18 -230q-78 -18 -162 -18q-148 0 -221 72t-73 220z" />
<glyph horiz-adv-x="0" />
<glyph horiz-adv-x="0" />
<glyph unicode="&#xd;" horiz-adv-x="0" />
<glyph horiz-adv-x="0" />
<glyph horiz-adv-x="520" />
<glyph unicode="&#x9;" horiz-adv-x="1024" />
<glyph horiz-adv-x="408" />
<glyph unicode=" "  horiz-adv-x="408" />
<glyph unicode="&#x09;" horiz-adv-x="408" />
<glyph unicode="&#xa0;" horiz-adv-x="408" />
<glyph unicode="!" horiz-adv-x="728" d="M196 134q0 76 44 118t124 42q78 0 123 -43t45 -115q0 -76 -44 -119t-124 -43q-78 0 -123 43t-45 117zM214 1448h300l-42 -1010h-216z" />
<glyph unicode="&#x22;" horiz-adv-x="820" d="M112 1448h254l-42 -542h-170zM454 1448h254l-42 -542h-170z" />
<glyph unicode="#" horiz-adv-x="1410" d="M42 358v194h296l58 344h-268v194h300l60 358h218l-60 -358h246l60 358h216l-60 -358h260v-194h-292l-58 -344h260v-194h-292l-60 -358h-218l60 358h-246l-60 -358h-216l60 358h-264zM556 552h246l56 344h-246z" />
<glyph unicode="$" horiz-adv-x="1116" d="M68 136l84 208q160 -88 318 -100l2 372l-50 14q-178 50 -257 141t-79 245q0 178 99 285t281 129v188h180v-186q180 -18 346 -88l-86 -208q-154 52 -264 64l-2 -352l52 -14q178 -50 257 -141t79 -249q0 -178 -99 -288t-283 -136v-190h-180v184q-110 8 -213 39t-185 83z M342 1058q0 -58 30 -96t100 -64l-2 302q-66 -10 -97 -45t-31 -97zM640 566l2 -314q68 14 99 50t31 100q0 62 -30 100t-102 64z" />
<glyph unicode="%" horiz-adv-x="1908" d="M94 1026q0 448 338 448t338 -448t-338 -448t-338 448zM318 1026q0 -138 27 -200t87 -62t87 62t27 200t-27 200t-87 62t-87 -62t-27 -200zM502 0l682 1448h222l-682 -1448h-222zM1138 422q0 448 338 448t338 -448t-338 -448t-338 448zM1362 422q0 -138 27 -200t87 -62 t87 62t27 200t-27 200t-87 62t-87 -62t-27 -200z" />
<glyph unicode="&#x26;" horiz-adv-x="1336" d="M96 338q0 106 46 188t150 160l90 68l-60 64q-68 78 -97 146t-29 152q0 174 107 266t307 92q192 0 298 -86t106 -244q0 -100 -50 -179t-174 -173l-62 -46l196 -216l100 226h258l-168 -372q-12 -28 -20 -42l196 -214l-188 -164l-152 166q-78 -80 -179 -118t-231 -38 q-212 0 -328 95t-116 269zM376 380q0 -160 198 -160q136 0 218 82l-264 290l-56 -42q-52 -40 -74 -79t-22 -91zM462 1116q0 -46 24 -89t96 -121l64 48q70 54 94 87t24 77q0 64 -37 94t-115 30q-76 0 -113 -31t-37 -95z" />
<glyph unicode="'" horiz-adv-x="478" d="M112 1448h254l-42 -542h-170z" />
<glyph unicode="(" horiz-adv-x="672" d="M88 682q0 514 340 956l184 -138q-264 -350 -264 -816q0 -464 264 -816l-184 -138q-340 442 -340 952z" />
<glyph unicode=")" horiz-adv-x="672" d="M60 -132q264 352 264 816q0 466 -264 816l184 138q340 -442 340 -956q0 -510 -340 -952z" />
<glyph unicode="*" horiz-adv-x="1080" d="M96 1036l72 216l280 -112l-22 308h228l-22 -308l280 112l72 -216l-296 -76l196 -240l-178 -142l-166 262l-166 -262l-178 142l196 240z" />
<glyph unicode="+" horiz-adv-x="1158" d="M80 618v238h376v412h246v-412h376v-238h-376v-412h-246v412h-376z" />
<glyph unicode="," horiz-adv-x="500" d="M-4 -256q78 84 110 165t32 197q0 74 -12 158h264q12 -78 12 -154q0 -144 -70 -260t-224 -226z" />
<glyph unicode="-" horiz-adv-x="826" d="M78 498v210h670v-210h-670z" />
<glyph unicode="." horiz-adv-x="532" d="M98 134q0 76 44 118t124 42q78 0 123 -43t45 -115q0 -76 -44 -119t-124 -43q-78 0 -123 43t-45 117z" />
<glyph unicode="/" horiz-adv-x="914" d="M26 -172l650 1670h224l-650 -1670h-224z" />
<glyph unicode="0" horiz-adv-x="1256" d="M114 724q0 390 127 570t385 180q260 0 388 -180t128 -570q0 -388 -128 -569t-386 -181t-386 181t-128 569zM394 724q0 -266 56 -386t178 -120t178 120t56 386t-56 386t-180 120q-122 0 -177 -120t-55 -386z" />
<glyph unicode="1" horiz-adv-x="934" d="M44 1286l422 162h238v-1448h-274v1170l-308 -106z" />
<glyph unicode="2" horiz-adv-x="1074" d="M40 1324q90 68 220 109t256 41q136 0 240 -50t160 -141t56 -211q0 -106 -54 -208t-184 -244l-350 -382h596v-238h-924v240l476 536q94 106 129 165t35 113q0 80 -54 125t-152 45q-80 0 -165 -28t-163 -78z" />
<glyph unicode="3" horiz-adv-x="1132" d="M40 110l100 220q92 -50 184 -77t172 -27q116 0 181 61t65 173q0 106 -61 166t-169 60q-56 0 -126 -16l-106 138l396 402h-598v238h896v-238l-312 -306q166 -30 263 -149t97 -295q0 -144 -65 -255t-184 -171t-277 -60q-128 0 -252 37t-204 99z" />
<glyph unicode="4" horiz-adv-x="1170" d="M34 272v234l508 942h384v-942h170v-234h-170v-272h-266v272h-626zM314 506h346v694z" />
<glyph unicode="5" horiz-adv-x="1116" d="M54 102l100 218q84 -46 171 -71t159 -25q118 0 184 65t66 179q0 110 -60 170t-166 60t-220 -52l-166 90l36 712h788v-238h-544l-24 -288q78 22 164 22q142 0 249 -58t165 -165t58 -247q0 -150 -66 -263t-186 -175t-278 -62q-122 0 -239 35t-191 93z" />
<glyph unicode="6" horiz-adv-x="1142" d="M82 482q0 178 63 328t223 334l286 330l214 -166l-292 -314l-68 -76q70 16 138 16q128 0 226 -58t151 -163t53 -245q0 -148 -61 -260t-172 -173t-259 -61q-150 0 -264 63t-176 178t-62 267zM328 652l10 6zM356 482q0 -128 60 -199t168 -71q102 0 159 66t57 184 q0 122 -61 189t-171 67q-78 0 -168 -34q-20 -40 -32 -94t-12 -108z" />
<glyph unicode="7" horiz-adv-x="998" d="M14 1210v238h938v-238l-554 -1230l-258 106l524 1124h-650z" />
<glyph unicode="8" horiz-adv-x="1182" d="M82 386q0 118 79 219t209 149q-108 38 -173 132t-65 206q0 114 57 201t160 134t241 47t242 -47t161 -134t57 -201q0 -112 -66 -203t-176 -129q132 -40 212 -142t80 -232q0 -122 -63 -216t-179 -145t-268 -51t-267 51t-178 145t-63 216zM354 404q0 -94 63 -147t173 -53 t174 53t64 147q0 76 -65 143t-181 109q-108 -36 -168 -102t-60 -150zM402 1066q0 -68 53 -123t145 -85q86 28 133 83t47 125q0 84 -50 132t-140 48q-88 0 -138 -48t-50 -132z" />
<glyph unicode="9" horiz-adv-x="1142" d="M66 980q0 148 61 260t172 173t259 61q150 0 264 -63t176 -178t62 -267q0 -178 -63 -328t-223 -334l-286 -330l-214 166l292 314l68 76q-70 -16 -138 -16q-128 0 -226 58t-151 163t-53 245zM342 986q0 -122 61 -189t171 -67q78 0 168 34q20 40 32 94t12 108q0 128 -60 199 t-168 71q-102 0 -159 -66t-57 -184zM804 790l10 6z" />
<glyph unicode=":" horiz-adv-x="612" d="M138 134q0 76 44 118t124 42q78 0 123 -43t45 -115q0 -76 -44 -119t-124 -43q-78 0 -123 43t-45 117zM138 794q0 76 44 118t124 42q78 0 123 -43t45 -115q0 -76 -44 -119t-124 -43q-78 0 -123 43t-45 117z" />
<glyph unicode=";" horiz-adv-x="612" d="M46 -256q78 84 110 165t32 197q0 74 -12 158h264q12 -78 12 -154q0 -144 -70 -260t-224 -226zM138 794q0 76 44 118t124 42q78 0 123 -43t45 -115q0 -76 -44 -119t-124 -43q-78 0 -123 43t-45 117z" />
<glyph unicode="&#x3c;" horiz-adv-x="870" d="M64 730l544 598l198 -184l-388 -414l388 -414l-198 -184z" />
<glyph unicode="=" horiz-adv-x="1158" d="M126 372v242h906v-242h-906zM126 846v242h906v-242h-906z" />
<glyph unicode="&#x3e;" horiz-adv-x="870" d="M64 316l388 414l-388 414l198 184l544 -598l-544 -598z" />
<glyph unicode="?" horiz-adv-x="1044" d="M72 1344q92 62 209 96t239 34q206 0 319 -99t113 -281q0 -100 -44 -170t-160 -160q-100 -78 -134 -125t-34 -109q0 -22 6 -92h-246q-6 76 -6 98q0 120 42 198t154 166q82 66 110 104t28 84q0 132 -174 132q-144 0 -314 -98zM296 134q0 76 44 118t124 42q78 0 123 -43 t45 -115q0 -76 -44 -119t-124 -43q-78 0 -123 43t-45 117z" />
<glyph unicode="@" horiz-adv-x="1626" d="M116 724q0 230 88 404t249 270t373 96q206 0 364 -86t244 -244t86 -364q0 -132 -39 -233t-111 -156t-166 -55q-118 0 -172 82q-68 -94 -210 -94q-152 0 -235 101t-83 283q0 180 90 278t256 98q144 0 250 -76v-396q0 -114 86 -114q70 0 108 74t38 208q0 244 -132 377 t-374 133q-244 0 -379 -154t-135 -432q0 -282 139 -436t395 -154q182 0 318 80l72 -156q-70 -50 -172 -77t-218 -27q-224 0 -389 95t-253 269t-88 406zM688 728q0 -216 154 -216q38 0 80 14v398q-40 12 -78 12q-156 0 -156 -208z" />
<glyph unicode="A" horiz-adv-x="1340" d="M30 0l490 1448h300l490 -1448h-290l-94 312h-516l-92 -312h-288zM482 552h374l-188 630z" />
<glyph unicode="B" horiz-adv-x="1296" d="M156 0v1448h274h248q220 0 340 -108t120 -306q0 -200 -186 -270q268 -80 268 -328q0 -208 -125 -322t-351 -114h-438h-150zM430 244h328q180 0 180 186q0 192 -194 192h-314v-378zM430 858h248q180 0 180 170q0 176 -194 176h-234v-346z" />
<glyph unicode="C" horiz-adv-x="1206" d="M76 694q0 240 80 416t229 270t351 94q112 0 220 -30t186 -86l-94 -210q-156 78 -316 78q-178 0 -275 -134t-97 -378q0 -486 398 -486q184 0 302 70l94 -208q-66 -54 -174 -84t-234 -30q-318 0 -494 188t-176 530z" />
<glyph unicode="D" horiz-adv-x="1386" d="M156 0v1448h480q320 0 487 -182t167 -540q0 -362 -167 -544t-487 -182h-480zM432 246h196q378 0 378 480q0 476 -376 476h-198v-956z" />
<glyph unicode="E" horiz-adv-x="1156" d="M156 0v1448h912v-246h-636v-338h468v-248h-468v-370h664v-246h-940z" />
<glyph unicode="F" horiz-adv-x="1080" d="M156 0v1448h896v-246h-620v-378h504v-248h-504v-576h-276z" />
<glyph unicode="G" horiz-adv-x="1336" d="M96 724q0 358 178 554t504 196q128 0 240 -30t188 -84l-80 -220q-188 88 -352 88q-394 0 -394 -504t398 -504q80 0 166 20v346h-238v244h514v-740q-82 -56 -199 -86t-243 -30q-326 0 -504 196t-178 554z" />
<glyph unicode="H" horiz-adv-x="1408" d="M156 0v1448h276v-590h544v590h276v-1448h-276v612h-544v-612h-276z" />
<glyph unicode="I" horiz-adv-x="596" d="M160 0v1448h276v-1448h-276z" />
<glyph unicode="J" horiz-adv-x="944" d="M0 86l98 210q136 -74 248 -74q176 0 176 172v1054h276v-1074q0 -190 -115 -295t-323 -105q-108 0 -202 29t-158 83z" />
<glyph unicode="K" horiz-adv-x="1272" d="M156 0v1448h276v-682l510 682h326l-508 -630l540 -818h-326l-388 602l-154 -192v-410h-276z" />
<glyph unicode="L" horiz-adv-x="1062" d="M156 0v1448h276v-1200h582v-248h-858z" />
<glyph unicode="M" horiz-adv-x="1710" d="M156 0v1448h332l368 -912l362 912h336v-1448h-268v1006l-288 -724h-288l-290 724v-1006h-264z" />
<glyph unicode="N" horiz-adv-x="1452" d="M156 0v1448h266l602 -978v978h272v-1448h-266l-602 982v-982h-272z" />
<glyph unicode="O" d="M96 724q0 372 159 561t461 189t461 -189t159 -561t-159 -561t-461 -189t-461 189t-159 561zM380 724q0 -504 336 -504t336 504t-336 504t-336 -504z" />
<glyph unicode="P" horiz-adv-x="1198" d="M156 0v1448h276h262q232 0 358 -130t126 -366q0 -238 -130 -369t-368 -131h-248v-452h-276zM432 698h262q200 0 200 248q0 256 -214 256h-248v-504z" />
<glyph unicode="Q" d="M96 724q0 372 159 561t461 189t461 -189t159 -561q0 -436 -216 -618l244 -260l-176 -176l-280 326q-92 -22 -192 -22q-302 0 -461 189t-159 561zM380 724q0 -504 336 -504t336 504t-336 504t-336 -504z" />
<glyph unicode="R" horiz-adv-x="1270" d="M156 0v1448h276h244q230 0 355 -123t125 -349q0 -166 -69 -278t-199 -162l358 -536h-330l-310 500h-174v-500h-276zM432 736h244q196 0 196 234q0 236 -204 236h-236v-470z" />
<glyph unicode="S" horiz-adv-x="1128" d="M58 108l88 216q190 -110 390 -110q250 0 250 172q0 72 -46 118t-148 74l-164 46q-186 52 -269 148t-83 258q0 210 128 326t358 116q110 0 228 -26t224 -74l-90 -216q-210 78 -366 78q-218 0 -218 -158q0 -72 46 -117t148 -73l164 -46q188 -52 270 -148t82 -260 q0 -218 -135 -337t-379 -119q-132 0 -257 35t-221 97z" />
<glyph unicode="T" horiz-adv-x="1060" d="M32 1200v248h636h360v-248h-360v-1200h-276v1200h-360z" />
<glyph unicode="U" horiz-adv-x="1376" d="M146 498v950h276v-930q0 -298 264 -298q268 0 268 298v930h276v-950q0 -250 -142 -387t-402 -137q-258 0 -399 137t-141 387z" />
<glyph unicode="V" horiz-adv-x="1268" d="M38 1448h290l308 -1158l306 1158h288l-446 -1448h-300z" />
<glyph unicode="W" horiz-adv-x="1796" d="M42 1448h284l212 -1122l212 1120h296l216 -1122l210 1124h282l-344 -1448h-300l-214 1072l-212 -1072h-300z" />
<glyph unicode="X" horiz-adv-x="1220" d="M32 0l426 734l-410 714h308l260 -484l264 484h304l-422 -714l426 -734h-308l-274 504l-270 -504h-304z" />
<glyph unicode="Y" horiz-adv-x="1180" d="M22 1448h294l276 -670l274 670h292l-432 -970v-478h-276v478z" />
<glyph unicode="Z" horiz-adv-x="1110" d="M66 0v244l650 962h-622v242h934v-242l-650 -964h662v-242h-974z" />
<glyph unicode="[" horiz-adv-x="716" d="M156 -242v1852h526v-208h-278v-1436h278v-208h-526z" />
<glyph unicode="\" horiz-adv-x="914" d="M14 1498h224l650 -1670h-224z" />
<glyph unicode="]" horiz-adv-x="716" d="M34 -34h278v1436h-278v208h526v-1852h-526v208z" />
<glyph unicode="^" horiz-adv-x="898" d="M14 1002l320 446h228l322 -446h-254l-180 278l-184 -278h-252z" />
<glyph unicode="_" horiz-adv-x="1202" d="M156 -112h890v-220h-890v220z" />
<glyph unicode="`" horiz-adv-x="1000" d="M200 1548v20h282l174 -318v-20h-208z" />
<glyph unicode="a" horiz-adv-x="1072" d="M52 306q0 196 147 287t475 95v40q0 150 -204 150q-124 0 -254 -56l-68 208q186 88 372 88q202 0 312 -94t110 -264v-760h-242v160q-98 -182 -322 -182q-156 0 -241 86t-85 242zM310 328q0 -122 138 -122q130 0 226 106v196q-192 -2 -278 -45t-86 -135z" />
<glyph unicode="b" horiz-adv-x="1162" d="M144 0v1026v514h272v-562q98 140 274 140q188 0 291 -149t103 -421q0 -274 -104 -424t-292 -150q-96 0 -174 39t-124 113v-126h-246zM416 308q38 -44 88 -67t106 -23q196 0 196 320q0 328 -204 328q-52 0 -96 -22t-90 -70v-466z" />
<glyph unicode="c" horiz-adv-x="966" d="M70 530q0 176 64 309t181 206t271 73q92 0 179 -26t151 -72l-96 -210q-142 62 -238 62q-112 0 -173 -86t-61 -242q0 -320 260 -320q114 0 228 60l92 -208q-130 -100 -332 -100q-250 0 -388 145t-138 409z" />
<glyph unicode="d" horiz-adv-x="1162" d="M78 544q0 274 104 424t292 150q84 0 154 -30t118 -86v538h272v-1474v-66h-246v156q-102 -182 -300 -182q-188 0 -291 149t-103 421zM356 554q0 -328 204 -328q52 0 96 22t90 70v466q-38 44 -88 67t-106 23q-196 0 -196 -320z" />
<glyph unicode="e" horiz-adv-x="1092" d="M74 546q0 274 127 423t357 149q224 0 346 -138t122 -388q0 -74 -12 -132h-664q34 -240 272 -240q132 0 264 64l96 -202q-80 -50 -182 -78t-208 -28q-248 0 -383 149t-135 421zM348 642h408q-4 114 -57 176t-147 62q-178 0 -204 -238z" />
<glyph unicode="f" horiz-adv-x="744" d="M10 858v234h168v82q0 190 115 295t327 105q68 0 122 -10v-236q-58 8 -122 8q-172 0 -172 -162v-82h256v-234h-256v-858h-272v858h-166z" />
<glyph unicode="g" horiz-adv-x="1166" d="M78 574q0 260 105 402t295 142q96 0 174 -39t124 -113v126h246v-1048q0 -232 -131 -358t-371 -126q-98 0 -193 21t-171 61l76 214q134 -58 258 -58q260 0 260 246v130q-98 -140 -274 -140q-190 0 -294 141t-104 399zM356 584q0 -298 208 -298q52 0 96 22t90 70v406 q-38 44 -88 67t-106 23q-200 0 -200 -290z" />
<glyph unicode="h" horiz-adv-x="1180" d="M144 0v1540h272v-556q122 134 304 134q156 0 241 -93t85 -265v-760h-272v720q0 146 -160 146q-56 0 -102 -18t-96 -56v-792h-272z" />
<glyph unicode="i" horiz-adv-x="568" d="M122 1388q0 74 43 115t119 41t119 -41t43 -113q0 -74 -43 -115t-119 -41t-119 41t-43 113zM148 0v1092h272v-1092h-272z" />
<glyph unicode="j" horiz-adv-x="568" d="M-138 -224q118 40 179 81t84 97t23 152v986h272v-994q0 -154 -42 -252t-142 -165t-284 -127zM122 1388q0 74 43 115t119 41t119 -41t43 -113q0 -74 -43 -115t-119 -41t-119 41t-43 113z" />
<glyph unicode="k" horiz-adv-x="1130" d="M144 0v1540h272v-900l362 452h310l-386 -458l416 -634h-310l-278 430l-114 -136v-294h-272z" />
<glyph unicode="l" horiz-adv-x="652" d="M140 278v1262h272v-1202q0 -58 22 -84t74 -26q32 0 70 6l18 -230q-78 -18 -162 -18q-148 0 -221 72t-73 220z" />
<glyph unicode="m" horiz-adv-x="1774" d="M144 0v1092h246v-138q128 164 322 164q102 0 175 -44t109 -128q136 172 328 172q150 0 233 -94t83 -264v-760h-272v720q0 146 -150 146q-50 0 -95 -18t-93 -56v-32v-760h-272v720q0 146 -152 146q-96 0 -190 -74v-792h-272z" />
<glyph unicode="n" horiz-adv-x="1176" d="M144 0v1092h246v-138q128 164 328 164q154 0 239 -94t85 -264v-760h-272v720q0 146 -158 146q-54 0 -100 -18t-96 -56v-792h-272z" />
<glyph unicode="o" horiz-adv-x="1126" d="M78 546q0 282 126 427t360 145t359 -144t125 -428q0 -282 -126 -427t-360 -145t-359 144t-125 428zM356 546q0 -330 206 -330q208 0 208 330t-206 330q-208 0 -208 -330z" />
<glyph unicode="p" horiz-adv-x="1162" d="M144 -414v1440v66h246v-156q102 182 300 182q188 0 291 -149t103 -421q0 -274 -104 -424t-292 -150q-84 0 -154 30t-118 86v-504h-272zM416 308q38 -44 88 -67t106 -23q196 0 196 320q0 328 -204 328q-52 0 -96 -22t-90 -70v-466z" />
<glyph unicode="q" horiz-adv-x="1162" d="M78 544q0 274 104 424t292 150q96 0 174 -39t124 -113v126h246v-1026v-480h-272v528q-98 -140 -274 -140q-188 0 -291 149t-103 421zM356 554q0 -328 204 -328q52 0 96 22t90 70v466q-38 44 -88 67t-106 23q-196 0 -196 -320z" />
<glyph unicode="r" horiz-adv-x="812" d="M144 0v1092h246v-172q92 194 282 194q68 0 120 -26l-52 -254q-60 18 -128 18t-115 -23t-81 -75v-754h-272z" />
<glyph unicode="s" horiz-adv-x="942" d="M40 86l94 220q148 -92 314 -92q174 0 174 98q0 40 -31 66t-101 42l-142 34q-154 36 -222 110t-68 202q0 166 109 258t307 92q100 0 200 -25t180 -69l-100 -216q-148 72 -284 72q-152 0 -152 -86q0 -38 32 -63t100 -41l142 -34q152 -36 221 -111t69 -205q0 -172 -114 -267 t-320 -95q-114 0 -221 29t-187 81z" />
<glyph unicode="t" horiz-adv-x="808" d="M22 858v234h168v296h270v-296h298v-234h-298v-472q0 -84 37 -122t117 -38q56 0 116 16l42 -230q-100 -28 -202 -28q-382 0 -382 352v522h-166z" />
<glyph unicode="u" horiz-adv-x="1160" d="M130 332v760h272v-720q0 -146 152 -146q56 0 100 21t90 67v778h272v-1092h-246v154q-120 -180 -322 -180q-152 0 -235 94t-83 264z" />
<glyph unicode="v" horiz-adv-x="1054" d="M28 1092h274l228 -818l224 818h272l-352 -1092h-292z" />
<glyph unicode="w" horiz-adv-x="1582" d="M32 1092h272l176 -806l174 806h276l180 -806l170 806h270l-296 -1092h-292l-172 766l-168 -766h-292z" />
<glyph unicode="x" horiz-adv-x="1028" d="M24 0l344 556l-328 536h294l186 -326l190 326h290l-340 -536l344 -556h-294l-200 346l-196 -346h-290z" />
<glyph unicode="y" horiz-adv-x="1046" d="M28 1092h274l224 -804l220 804h272l-330 -1030q-60 -190 -193 -309t-369 -193l-92 228q138 48 218 98t130 116z" />
<glyph unicode="z" horiz-adv-x="944" d="M56 0v230l512 632h-492v230h796v-230l-512 -632h524v-230h-828z" />
<glyph unicode="{" horiz-adv-x="762" d="M16 580v208q114 2 169 40t55 118v208q0 148 40 237t132 145t262 94l56 -196q-100 -24 -152 -55t-72 -82t-20 -143v-208q0 -212 -174 -260q174 -48 174 -264v-206q0 -92 20 -144t72 -83t152 -55l-56 -196q-170 38 -262 94t-132 146t-40 238v206q0 80 -55 118t-169 40z" />
<glyph unicode="|" horiz-adv-x="514" d="M156 -500v2132h202v-2132h-202z" />
<glyph unicode="}" horiz-adv-x="762" d="M32 -66q100 24 152 55t72 83t20 144v206q0 216 174 264q-174 48 -174 260v208q0 92 -20 143t-72 82t-152 55l56 196q170 -38 262 -94t132 -145t40 -237v-208q0 -80 55 -118t169 -40v-208q-114 -2 -169 -40t-55 -118v-206q0 -148 -40 -238t-132 -146t-262 -94z" />
<glyph unicode="~" horiz-adv-x="1158" d="M80 714q152 188 326 188q58 0 100 -17t94 -49q42 -28 73 -41t69 -13q46 0 88 26t90 84l158 -162q-152 -188 -326 -188q-58 0 -100 17t-94 49q-42 28 -73 41t-69 13q-46 0 -88 -26t-90 -84z" />
<glyph unicode="&#xa1;" horiz-adv-x="728" d="M196 932q0 76 44 119t124 43q78 0 123 -43t45 -117q0 -76 -44 -118t-124 -42q-78 0 -123 43t-45 115zM214 -380l42 1010h216l42 -1010h-300z" />
<glyph unicode="&#xa2;" horiz-adv-x="976" d="M70 566q0 210 113 348t305 166v230h180v-228q138 -16 242 -86l-94 -202q-78 36 -148 48v-548q94 10 166 50l88 -198q-102 -76 -254 -90v-226h-180v228q-202 28 -310 159t-108 349zM340 568q0 -110 36 -174t112 -88v532q-148 -46 -148 -270z" />
<glyph unicode="&#xa3;" horiz-adv-x="1068" d="M84 614v228h148q-32 70 -48 124t-16 128q0 182 112 281t316 99q118 0 219 -33t169 -93l-132 -220q-134 92 -256 92q-156 0 -156 -144q0 -44 12 -84t40 -110l16 -40h344v-228h-296q-2 -106 -49 -196t-149 -176h622v-242h-878v240l58 56q74 72 105 138t31 154v26h-212z" />
<glyph unicode="&#xa4;" horiz-adv-x="1196" d="M78 118l136 170q-96 130 -96 338q0 206 96 336l-136 170l140 110l136 -166q106 50 244 50t244 -50l136 166l140 -110l-136 -170q96 -130 96 -336q0 -208 -96 -338l136 -170l-140 -110l-136 166q-106 -50 -244 -50t-244 50l-136 -166zM382 626q0 -264 216 -264t216 264 q0 262 -216 262t-216 -262z" />
<glyph unicode="&#xa5;" horiz-adv-x="1072" d="M14 1448h290l238 -692l228 692h288l-316 -766h196v-176h-268v-128h268v-176h-268v-202h-272v202h-268v176h268v128h-268v176h196z" />
<glyph unicode="&#xa6;" horiz-adv-x="514" d="M156 396h202v-896h-202v896zM156 738v894h202v-894h-202z" />
<glyph unicode="&#xa7;" horiz-adv-x="1070" d="M104 -320l92 226q206 -94 334 -94q172 0 172 154q0 62 -34 99t-120 61l-124 34q-166 46 -243 133t-77 233q0 164 96 284q-84 94 -84 246q0 198 115 307t325 109q94 0 191 -22t183 -62l-96 -216q-172 62 -282 62q-176 0 -176 -158q0 -64 34 -100t116 -58l124 -34 q164 -46 240 -133t76 -235q0 -164 -94 -282q90 -90 90 -252q0 -194 -113 -301t-319 -107q-106 0 -218 28t-208 78zM350 576q0 -74 40 -116t140 -72l124 -36l32 -10q34 56 34 128q0 74 -39 116t-137 70l-124 36l-34 10q-36 -56 -36 -126z" />
<glyph unicode="&#xa8;" horiz-adv-x="1000" d="M160 1368q0 68 38 106t106 38t107 -38t39 -104q0 -68 -38 -105t-108 -37q-68 0 -106 38t-38 102zM550 1368q0 68 38 106t106 38t107 -38t39 -104q0 -68 -38 -105t-108 -37q-68 0 -106 38t-38 102z" />
<glyph unicode="&#xa9;" horiz-adv-x="1676" d="M152 724q0 236 84 404t238 257t364 89t364 -89t238 -257t84 -404t-84 -404t-238 -257t-364 -89t-364 89t-238 257t-84 404zM316 724q0 -282 136 -436t386 -154t386 154t136 436t-136 436t-386 154t-386 -154t-136 -436zM534 714q0 180 87 279t245 99q134 0 218 -62 l-70 -146q-92 40 -150 40q-140 0 -140 -200t156 -200q68 0 148 40l64 -144q-38 -30 -95 -47t-125 -17q-160 0 -249 94t-89 264z" />
<glyph unicode="&#xaa;" horiz-adv-x="1036" d="M112 842q0 150 125 217t403 65v30q0 54 -38 79t-118 25q-116 0 -240 -46l-60 174q76 36 165 55t173 19q164 0 254 -68t90 -192v-556q-74 -38 -171 -58t-203 -20q-182 0 -281 72t-99 204zM172 208v188h670v-188h-670zM338 852q0 -96 154 -96q94 0 148 18v202 q-160 2 -231 -27t-71 -97z" />
<glyph unicode="&#xab;" horiz-adv-x="1218" d="M34 582l480 552l162 -156l-348 -394l348 -398l-164 -156zM538 582l480 552l162 -156l-348 -394l348 -398l-164 -156z" />
<glyph unicode="&#xac;" horiz-adv-x="1158" d="M108 784v242h942v-242v-340h-246v340h-696z" />
<glyph unicode="&#xad;" horiz-adv-x="826" d="M78 498v210h670v-210h-670z" />
<glyph unicode="&#xae;" horiz-adv-x="1676" d="M152 724q0 236 84 404t238 257t364 89t364 -89t238 -257t84 -404t-84 -404t-238 -257t-364 -89t-364 89t-238 257t-84 404zM316 724q0 -282 136 -436t386 -154t386 154t136 436t-136 436t-386 154t-386 -154t-136 -436zM592 368v712h264q118 0 184 -66t66 -184 q0 -154 -108 -216l138 -246h-194l-110 214h-70v-214h-170zM762 726h84q82 0 82 102t-82 102h-84v-204z" />
<glyph unicode="&#xaf;" horiz-adv-x="1000" d="M172 1272v184h656v-184h-656z" />
<glyph unicode="&#xb0;" horiz-adv-x="912" d="M76 1092q0 112 48 198t134 134t198 48t198 -48t134 -134t48 -198t-48 -198t-134 -134t-198 -48t-198 48t-134 134t-48 198zM300 1092q0 -74 43 -119t113 -45t113 45t43 119t-43 119t-113 45t-113 -45t-43 -119z" />
<glyph unicode="&#xb1;" horiz-adv-x="1158" d="M80 108v234h998v-234h-998zM80 804v238h376v356h246v-356h376v-238h-376v-356h-246v356h-376z" />
<glyph unicode="&#xb2;" horiz-adv-x="766" d="M28 1440q168 114 342 114q146 0 225 -70t79 -200q0 -76 -34 -136t-128 -146l-192 -178h364v-182h-638v182l312 300q58 54 77 83t19 63q0 90 -106 90q-102 0 -226 -80z" />
<glyph unicode="&#xb3;" horiz-adv-x="814" d="M28 720l76 166q132 -64 242 -64q146 0 146 108q0 52 -33 78t-103 26q-48 0 -100 -12l-82 112l250 224h-362v182h620v-184l-198 -160q112 -22 172 -92t60 -180q0 -142 -96 -219t-274 -77q-182 0 -318 92z" />
<glyph unicode="&#xb4;" horiz-adv-x="1000" d="M352 1230v20l190 318h282v-20l-264 -318h-208z" />
<glyph unicode="&#xb5;" horiz-adv-x="1184" d="M144 -414v906v600h272v-720q0 -72 41 -110t115 -38q58 0 104 22t92 68v778h272v-1092h-246v154q-108 -164 -284 -164q-54 0 -94 14v-418h-272z" />
<glyph unicode="&#xb6;" horiz-adv-x="1152" d="M36 1026q0 202 125 312t355 110h480v-1448h-192v1270h-140v-1270h-184v608q-212 8 -328 116t-116 302z" />
<glyph unicode="&#xb7;" horiz-adv-x="532" d="M98 678q0 76 44 118t124 42q78 0 123 -43t45 -115q0 -76 -44 -119t-124 -43q-78 0 -123 43t-45 117z" />
<glyph unicode="&#xb8;" horiz-adv-x="1000" d="M244 -428l42 124q106 -34 172 -34q98 0 98 62q0 58 -86 58q-42 0 -78 -14l-60 68l84 204l176 -12l-96 -130q28 4 42 4q108 0 167 -45t59 -127q0 -100 -72 -155t-204 -55q-136 0 -244 52z" />
<glyph unicode="&#xb9;" horiz-adv-x="720" d="M32 1430l284 110h186v-898h-216v688l-196 -68z" />
<glyph unicode="&#xba;" horiz-adv-x="1048" d="M118 1014q0 222 106 335t302 113q194 0 299 -113t105 -335t-106 -336t-300 -114t-300 114t-106 336zM190 208v188h670v-188h-670zM350 1014q0 -252 174 -252t174 252q0 250 -172 250q-176 0 -176 -250z" />
<glyph unicode="&#xbb;" horiz-adv-x="1218" d="M38 186l348 394l-348 398l164 156l478 -552l-480 -552zM542 186l348 394l-348 398l164 156l478 -552l-480 -552z" />
<glyph unicode="&#xbc;" horiz-adv-x="1902" d="M32 1338l284 110h186v-898h-216v688l-196 -68zM444 46l804 1454l174 -98l-804 -1454zM1140 146v178l322 574h300v-574h102v-178h-102v-146h-210v146h-412zM1360 324h192v386z" />
<glyph unicode="&#xbd;" horiz-adv-x="1988" d="M32 1338l284 110h186v-898h-216v688l-196 -68zM444 46l804 1454l174 -98l-804 -1454zM1254 798q168 114 342 114q146 0 225 -70t79 -200q0 -76 -34 -136t-128 -146l-192 -178h364v-182h-638v182l312 300q58 54 77 83t19 63q0 90 -106 90q-102 0 -226 -80z" />
<glyph unicode="&#xbe;" horiz-adv-x="2032" d="M28 628l76 166q132 -64 242 -64q146 0 146 108q0 52 -33 78t-103 26q-48 0 -100 -12l-82 112l250 224h-362v182h620v-184l-198 -160q112 -22 172 -92t60 -180q0 -142 -96 -219t-274 -77q-182 0 -318 92zM574 46l804 1454l174 -98l-804 -1454zM1270 146v178l322 574h300 v-574h102v-178h-102v-146h-210v146h-412zM1490 324h192v386z" />
<glyph unicode="&#xbf;" horiz-adv-x="944" d="M92 -26q0 100 44 170t160 160q100 78 134 125t34 109q0 24 -6 92h246q6 -74 6 -98q0 -120 -42 -198t-154 -166q-82 -66 -110 -104t-28 -84q0 -132 174 -132q144 0 314 98l108 -222q-92 -62 -209 -96t-239 -34q-206 0 -319 99t-113 281zM412 932q0 76 44 119t124 43 q78 0 123 -43t45 -117q0 -76 -44 -118t-124 -42q-78 0 -123 43t-45 115z" />
<glyph unicode="&#xc0;" horiz-adv-x="1340" d="M30 0l490 1448h300l490 -1448h-290l-94 312h-516l-92 -312h-288zM266 1828v24h302l272 -266v-24h-228zM482 552h374l-188 630z" />
<glyph unicode="&#xc1;" horiz-adv-x="1340" d="M30 0l490 1448h300l490 -1448h-290l-94 312h-516l-92 -312h-288zM482 552h374l-188 630zM498 1562v24l290 266h302v-24l-364 -266h-228z" />
<glyph unicode="&#xc2;" horiz-adv-x="1340" d="M30 0l490 1448h300l490 -1448h-290l-94 312h-516l-92 -312h-288zM306 1562v24l234 266h260l234 -266v-24h-202l-166 152l-164 -152h-196zM482 552h374l-188 630z" />
<glyph unicode="&#xc3;" horiz-adv-x="1340" d="M30 0l490 1448h300l490 -1448h-290l-94 312h-516l-92 -312h-288zM300 1574q2 142 62 221t166 79q54 0 93 -18t91 -52q30 -22 53 -33t47 -11q66 0 78 110h150q-2 -142 -62 -221t-166 -79q-54 0 -93 18t-91 52q-30 22 -53 33t-47 11q-66 0 -78 -110h-150zM482 552h374 l-188 630z" />
<glyph unicode="&#xc4;" horiz-adv-x="1340" d="M30 0l490 1448h300l490 -1448h-290l-94 312h-516l-92 -312h-288zM318 1684q0 68 38 106t106 38t107 -38t39 -104q0 -68 -38 -105t-108 -37q-68 0 -106 38t-38 102zM482 552h374l-188 630zM732 1684q0 68 38 106t106 38t107 -38t39 -104q0 -68 -38 -105t-108 -37 q-68 0 -106 38t-38 102z" />
<glyph unicode="&#xc5;" horiz-adv-x="1340" d="M30 0l490 1448h300l490 -1448h-290l-94 312h-516l-92 -312h-288zM396 1770q0 114 72 177t202 63t202 -63t72 -177t-72 -177t-202 -63t-202 63t-72 177zM482 552h374l-188 630zM564 1770q0 -108 106 -108t106 108t-106 108t-106 -108z" />
<glyph unicode="&#xc6;" horiz-adv-x="1864" d="M-12 0l738 1448h276h774v-246h-608v-338h440v-248h-440v-370h636v-246h-904v294h-474l-146 -294h-292zM546 534h354v710z" />
<glyph unicode="&#xc7;" horiz-adv-x="1206" d="M76 694q0 240 80 416t229 270t351 94q112 0 220 -30t186 -86l-94 -210q-156 78 -316 78q-178 0 -275 -134t-97 -378q0 -486 398 -486q184 0 302 70l94 -208q-64 -52 -168 -82t-228 -32l-58 -78q28 4 42 4q108 0 167 -45t59 -127q0 -100 -72 -155t-204 -55q-136 0 -244 52 l42 124q106 -34 172 -34q98 0 98 62q0 58 -86 58q-42 0 -78 -14l-60 68l62 152q-250 42 -386 225t-136 481z" />
<glyph unicode="&#xc8;" horiz-adv-x="1156" d="M156 0v1448h912v-246h-636v-338h468v-248h-468v-370h664v-246h-940zM206 1828v24h302l272 -266v-24h-228z" />
<glyph unicode="&#xc9;" horiz-adv-x="1156" d="M156 0v1448h912v-246h-636v-338h468v-248h-468v-370h664v-246h-940zM438 1562v24l290 266h302v-24l-364 -266h-228z" />
<glyph unicode="&#xca;" horiz-adv-x="1156" d="M156 0v1448h912v-246h-636v-338h468v-248h-468v-370h664v-246h-940zM246 1562v24l234 266h260l234 -266v-24h-202l-166 152l-164 -152h-196z" />
<glyph unicode="&#xcb;" horiz-adv-x="1156" d="M156 0v1448h912v-246h-636v-338h468v-248h-468v-370h664v-246h-940zM258 1684q0 68 38 106t106 38t107 -38t39 -104q0 -68 -38 -105t-108 -37q-68 0 -106 38t-38 102zM672 1684q0 68 38 106t106 38t107 -38t39 -104q0 -68 -38 -105t-108 -37q-68 0 -106 38t-38 102z" />
<glyph unicode="&#xcc;" horiz-adv-x="596" d="M-106 1828v24h302l272 -266v-24h-228zM160 0v1448h276v-1448h-276z" />
<glyph unicode="&#xcd;" horiz-adv-x="596" d="M126 1562v24l290 266h302v-24l-364 -266h-228zM160 0v1448h276v-1448h-276z" />
<glyph unicode="&#xce;" horiz-adv-x="596" d="M-66 1562v24l234 266h260l234 -266v-24h-202l-166 152l-164 -152h-196zM160 0v1448h276v-1448h-276z" />
<glyph unicode="&#xcf;" horiz-adv-x="596" d="M-54 1684q0 68 38 106t106 38t107 -38t39 -104q0 -68 -38 -105t-108 -37q-68 0 -106 38t-38 102zM160 0v1448h276v-1448h-276zM360 1684q0 68 38 106t106 38t107 -38t39 -104q0 -68 -38 -105t-108 -37q-68 0 -106 38t-38 102z" />
<glyph unicode="&#xd0;" horiz-adv-x="1388" d="M30 628v210h128v610h480q320 0 487 -182t167 -540q0 -362 -167 -544t-487 -182h-480v628h-128zM434 246h196q378 0 378 480q0 476 -376 476h-198v-364h306v-210h-306v-382z" />
<glyph unicode="&#xd1;" horiz-adv-x="1452" d="M156 0v1448h266l602 -978v978h272v-1448h-266l-602 982v-982h-272zM356 1574q2 142 62 221t166 79q54 0 93 -18t91 -52q30 -22 53 -33t47 -11q66 0 78 110h150q-2 -142 -62 -221t-166 -79q-54 0 -93 18t-91 52q-30 22 -53 33t-47 11q-66 0 -78 -110h-150z" />
<glyph unicode="&#xd2;" d="M96 724q0 372 159 561t461 189t461 -189t159 -561t-159 -561t-461 -189t-461 189t-159 561zM312 1828v24h302l272 -266v-24h-228zM380 724q0 -504 336 -504t336 504t-336 504t-336 -504z" />
<glyph unicode="&#xd3;" d="M96 724q0 372 159 561t461 189t461 -189t159 -561t-159 -561t-461 -189t-461 189t-159 561zM380 724q0 -504 336 -504t336 504t-336 504t-336 -504zM544 1562v24l290 266h302v-24l-364 -266h-228z" />
<glyph unicode="&#xd4;" d="M96 724q0 372 159 561t461 189t461 -189t159 -561t-159 -561t-461 -189t-461 189t-159 561zM352 1562v24l234 266h260l234 -266v-24h-202l-166 152l-164 -152h-196zM380 724q0 -504 336 -504t336 504t-336 504t-336 -504z" />
<glyph unicode="&#xd5;" d="M96 724q0 372 159 561t461 189t461 -189t159 -561t-159 -561t-461 -189t-461 189t-159 561zM346 1574q2 142 62 221t166 79q54 0 93 -18t91 -52q30 -22 53 -33t47 -11q66 0 78 110h150q-2 -142 -62 -221t-166 -79q-54 0 -93 18t-91 52q-30 22 -53 33t-47 11 q-66 0 -78 -110h-150zM380 724q0 -504 336 -504t336 504t-336 504t-336 -504z" />
<glyph unicode="&#xd6;" d="M96 724q0 372 159 561t461 189t461 -189t159 -561t-159 -561t-461 -189t-461 189t-159 561zM364 1684q0 68 38 106t106 38t107 -38t39 -104q0 -68 -38 -105t-108 -37q-68 0 -106 38t-38 102zM380 724q0 -504 336 -504t336 504t-336 504t-336 -504zM778 1684q0 68 38 106 t106 38t107 -38t39 -104q0 -68 -38 -105t-108 -37q-68 0 -106 38t-38 102z" />
<glyph unicode="&#xd7;" horiz-adv-x="1158" d="M116 426l296 310l-296 310l170 174l294 -308l292 308l170 -174l-296 -310l296 -310l-170 -174l-292 308l-294 -308z" />
<glyph unicode="&#xd8;" d="M36 0l182 226q-122 190 -122 498q0 372 159 561t461 189q226 0 380 -120l84 114h216v-20l-182 -226q122 -190 122 -498q0 -372 -159 -561t-461 -189q-226 0 -380 120l-84 -114h-216v20zM372 724q0 -166 28 -266l544 698q-80 80 -228 80q-344 0 -344 -512zM488 292 q80 -80 228 -80q344 0 344 512q0 166 -28 266z" />
<glyph unicode="&#xd9;" horiz-adv-x="1376" d="M146 498v950h276v-930q0 -298 264 -298q268 0 268 298v930h276v-950q0 -250 -142 -387t-402 -137q-258 0 -399 137t-141 387zM284 1828v24h302l272 -266v-24h-228z" />
<glyph unicode="&#xda;" horiz-adv-x="1376" d="M146 498v950h276v-930q0 -298 264 -298q268 0 268 298v930h276v-950q0 -250 -142 -387t-402 -137q-258 0 -399 137t-141 387zM516 1562v24l290 266h302v-24l-364 -266h-228z" />
<glyph unicode="&#xdb;" horiz-adv-x="1376" d="M146 498v950h276v-930q0 -298 264 -298q268 0 268 298v930h276v-950q0 -250 -142 -387t-402 -137q-258 0 -399 137t-141 387zM324 1562v24l234 266h260l234 -266v-24h-202l-166 152l-164 -152h-196z" />
<glyph unicode="&#xdc;" horiz-adv-x="1376" d="M146 498v950h276v-930q0 -298 264 -298q268 0 268 298v930h276v-950q0 -250 -142 -387t-402 -137q-258 0 -399 137t-141 387zM336 1684q0 68 38 106t106 38t107 -38t39 -104q0 -68 -38 -105t-108 -37q-68 0 -106 38t-38 102zM750 1684q0 68 38 106t106 38t107 -38 t39 -104q0 -68 -38 -105t-108 -37q-68 0 -106 38t-38 102z" />
<glyph unicode="&#xdd;" horiz-adv-x="1180" d="M22 1448h294l276 -670l274 670h292l-432 -970v-478h-276v478zM416 1562v24l290 266h302v-24l-364 -266h-228z" />
<glyph unicode="&#xde;" horiz-adv-x="1234" d="M156 0v1448h276v-218h252q230 0 357 -128t127 -360q0 -236 -131 -365t-367 -127h-238v-250h-276zM432 496h252q200 0 200 240q0 248 -214 248h-238v-488z" />
<glyph unicode="&#xdf;" horiz-adv-x="1208" d="M144 0v1094q0 230 116 355t330 125q196 0 303 -98t107 -278q0 -222 -180 -342q330 -80 330 -424q0 -212 -119 -329t-337 -117q-92 0 -180 26l44 218q70 -18 136 -18q200 0 200 196q0 264 -346 284v204q104 48 152 113t48 159q0 168 -150 168q-182 0 -182 -242v-1094h-272 z" />
<glyph unicode="&#xe0;" horiz-adv-x="1072" d="M52 306q0 196 147 287t475 95v40q0 150 -204 150q-124 0 -254 -56l-68 208q186 88 372 88q202 0 312 -94t110 -264v-760h-242v160q-98 -182 -322 -182q-156 0 -241 86t-85 242zM214 1548v20h282l174 -318v-20h-208zM310 328q0 -122 138 -122q130 0 226 106v196 q-192 -2 -278 -45t-86 -135z" />
<glyph unicode="&#xe1;" horiz-adv-x="1072" d="M52 306q0 196 147 287t475 95v40q0 150 -204 150q-124 0 -254 -56l-68 208q186 88 372 88q202 0 312 -94t110 -264v-760h-242v160q-98 -182 -322 -182q-156 0 -241 86t-85 242zM310 328q0 -122 138 -122q130 0 226 106v196q-192 -2 -278 -45t-86 -135zM366 1230v20 l190 318h282v-20l-264 -318h-208z" />
<glyph unicode="&#xe2;" horiz-adv-x="1072" d="M52 306q0 196 147 287t475 95v40q0 150 -204 150q-124 0 -254 -56l-68 208q186 88 372 88q202 0 312 -94t110 -264v-760h-242v160q-98 -182 -322 -182q-156 0 -241 86t-85 242zM186 1230v20l204 318h248l204 -318v-20h-190l-142 176l-140 -176h-184zM310 328 q0 -122 138 -122q130 0 226 106v196q-192 -2 -278 -45t-86 -135z" />
<glyph unicode="&#xe3;" horiz-adv-x="1072" d="M52 306q0 196 147 287t475 95v40q0 150 -204 150q-124 0 -254 -56l-68 208q186 88 372 88q202 0 312 -94t110 -264v-760h-242v160q-98 -182 -322 -182q-156 0 -241 86t-85 242zM144 1234q2 142 62 221t166 79q54 0 93 -18t91 -52q30 -22 53 -33t47 -11q66 0 78 110h150 q-2 -142 -62 -221t-166 -79q-54 0 -93 18t-91 52q-30 22 -53 33t-47 11q-66 0 -78 -110h-150zM310 328q0 -122 138 -122q130 0 226 106v196q-192 -2 -278 -45t-86 -135z" />
<glyph unicode="&#xe4;" horiz-adv-x="1072" d="M52 306q0 196 147 287t475 95v40q0 150 -204 150q-124 0 -254 -56l-68 208q186 88 372 88q202 0 312 -94t110 -264v-760h-242v160q-98 -182 -322 -182q-156 0 -241 86t-85 242zM174 1368q0 68 38 106t106 38t107 -38t39 -104q0 -68 -38 -105t-108 -37q-68 0 -106 38 t-38 102zM310 328q0 -122 138 -122q130 0 226 106v196q-192 -2 -278 -45t-86 -135zM564 1368q0 68 38 106t106 38t107 -38t39 -104q0 -68 -38 -105t-108 -37q-68 0 -106 38t-38 102z" />
<glyph unicode="&#xe5;" horiz-adv-x="1072" d="M52 306q0 196 147 287t475 95v40q0 150 -204 150q-124 0 -254 -56l-68 208q186 88 372 88q202 0 312 -94t110 -264v-760h-242v160q-98 -182 -322 -182q-156 0 -241 86t-85 242zM242 1440q0 114 71 177t201 63t201 -63t71 -177t-71 -177t-201 -63t-201 63t-71 177z M310 328q0 -122 138 -122q130 0 226 106v196q-192 -2 -278 -45t-86 -135zM408 1440q0 -110 106 -110t106 110t-106 110t-106 -110z" />
<glyph unicode="&#xe6;" horiz-adv-x="1656" d="M52 300q0 192 145 281t465 93v54q0 150 -198 150q-122 0 -248 -56l-68 208q186 88 366 88q210 0 304 -128q54 62 134 95t176 33q220 0 341 -138t121 -388q0 -74 -12 -132h-652q34 -240 266 -240q124 0 258 64l96 -202q-80 -50 -180 -78t-204 -28q-140 0 -244 52t-168 152 q-84 -106 -175 -154t-203 -48q-152 0 -236 84t-84 238zM310 320q0 -114 132 -114q136 0 240 130q-20 76 -22 158q-184 -2 -267 -44t-83 -130zM924 642h396q-2 114 -54 176t-144 62q-172 0 -198 -238z" />
<glyph unicode="&#xe7;" horiz-adv-x="966" d="M70 530q0 176 64 309t181 206t271 73q92 0 179 -26t151 -72l-96 -210q-142 62 -238 62q-112 0 -173 -86t-61 -242q0 -320 260 -320q114 0 228 60l92 -208q-130 -100 -332 -100h-6l-58 -78q28 4 42 4q108 0 167 -45t59 -127q0 -100 -72 -155t-204 -55q-136 0 -244 52 l42 124q106 -34 172 -34q98 0 98 62q0 58 -86 58q-42 0 -78 -14l-60 68l66 158q-176 44 -270 182t-94 354z" />
<glyph unicode="&#xe8;" horiz-adv-x="1092" d="M74 546q0 274 127 423t357 149q224 0 346 -138t122 -388q0 -74 -12 -132h-664q34 -240 272 -240q132 0 264 64l96 -202q-80 -50 -182 -78t-208 -28q-248 0 -383 149t-135 421zM256 1548v20h282l174 -318v-20h-208zM348 642h408q-4 114 -57 176t-147 62q-178 0 -204 -238z " />
<glyph unicode="&#xe9;" horiz-adv-x="1092" d="M74 546q0 274 127 423t357 149q224 0 346 -138t122 -388q0 -74 -12 -132h-664q34 -240 272 -240q132 0 264 64l96 -202q-80 -50 -182 -78t-208 -28q-248 0 -383 149t-135 421zM348 642h408q-4 114 -57 176t-147 62q-178 0 -204 -238zM408 1230v20l190 318h282v-20 l-264 -318h-208z" />
<glyph unicode="&#xea;" horiz-adv-x="1092" d="M74 546q0 274 127 423t357 149q224 0 346 -138t122 -388q0 -74 -12 -132h-664q34 -240 272 -240q132 0 264 64l96 -202q-80 -50 -182 -78t-208 -28q-248 0 -383 149t-135 421zM228 1230v20l204 318h248l204 -318v-20h-190l-142 176l-140 -176h-184zM348 642h408 q-4 114 -57 176t-147 62q-178 0 -204 -238z" />
<glyph unicode="&#xeb;" horiz-adv-x="1092" d="M74 546q0 274 127 423t357 149q224 0 346 -138t122 -388q0 -74 -12 -132h-664q34 -240 272 -240q132 0 264 64l96 -202q-80 -50 -182 -78t-208 -28q-248 0 -383 149t-135 421zM216 1368q0 68 38 106t106 38t107 -38t39 -104q0 -68 -38 -105t-108 -37q-68 0 -106 38 t-38 102zM348 642h408q-4 114 -57 176t-147 62q-178 0 -204 -238zM606 1368q0 68 38 106t106 38t107 -38t39 -104q0 -68 -38 -105t-108 -37q-68 0 -106 38t-38 102z" />
<glyph unicode="&#xec;" horiz-adv-x="568" d="M-16 1548v20h282l174 -318v-20h-208zM148 0v1092h272v-1092h-272z" />
<glyph unicode="&#xed;" horiz-adv-x="568" d="M136 1230v20l190 318h282v-20l-264 -318h-208zM148 0v1092h272v-1092h-272z" />
<glyph unicode="&#xee;" horiz-adv-x="568" d="M-44 1230v20l204 318h248l204 -318v-20h-190l-142 176l-140 -176h-184zM148 0v1092h272v-1092h-272z" />
<glyph unicode="&#xef;" horiz-adv-x="568" d="M-48 1368q0 68 37 106t105 38q66 0 103 -38t37 -104q0 -68 -37 -105t-103 -37t-104 38t-38 102zM148 0v1092h272v-1092h-272zM334 1368q0 68 37 106t105 38q66 0 103 -38t37 -104q0 -68 -37 -105t-103 -37t-104 38t-38 102z" />
<glyph unicode="&#xf0;" horiz-adv-x="1126" d="M68 528q0 258 119 400t337 142q130 0 210 -74q-66 142 -202 250l-236 -142l-80 140l178 90q-68 34 -140 60l-56 20l60 170l56 -20q154 -54 272 -122l208 128l80 -140l-152 -80q168 -134 247 -319t79 -439q0 -310 -122 -464t-368 -154q-236 0 -363 140t-127 414zM346 528 q0 -312 212 -312q214 0 214 330q0 140 -56 217t-156 77q-214 0 -214 -312z" />
<glyph unicode="&#xf1;" horiz-adv-x="1176" d="M144 0v1092h246v-138q128 164 328 164q154 0 239 -94t85 -264v-760h-272v720q0 146 -158 146q-54 0 -100 -18t-96 -56v-792h-272zM224 1234q2 142 62 221t166 79q54 0 93 -18t91 -52q30 -22 53 -33t47 -11q66 0 78 110h150q-2 -142 -62 -221t-166 -79q-54 0 -93 18 t-91 52q-30 22 -53 33t-47 11q-66 0 -78 -110h-150z" />
<glyph unicode="&#xf2;" horiz-adv-x="1126" d="M78 546q0 282 126 427t360 145t359 -144t125 -428q0 -282 -126 -427t-360 -145t-359 144t-125 428zM264 1548v20h282l174 -318v-20h-208zM356 546q0 -330 206 -330q208 0 208 330t-206 330q-208 0 -208 -330z" />
<glyph unicode="&#xf3;" horiz-adv-x="1126" d="M78 546q0 282 126 427t360 145t359 -144t125 -428q0 -282 -126 -427t-360 -145t-359 144t-125 428zM356 546q0 -330 206 -330q208 0 208 330t-206 330q-208 0 -208 -330zM416 1230v20l190 318h282v-20l-264 -318h-208z" />
<glyph unicode="&#xf4;" horiz-adv-x="1126" d="M78 546q0 282 126 427t360 145t359 -144t125 -428q0 -282 -126 -427t-360 -145t-359 144t-125 428zM236 1230v20l204 318h248l204 -318v-20h-190l-142 176l-140 -176h-184zM356 546q0 -330 206 -330q208 0 208 330t-206 330q-208 0 -208 -330z" />
<glyph unicode="&#xf5;" horiz-adv-x="1126" d="M78 546q0 282 126 427t360 145t359 -144t125 -428q0 -282 -126 -427t-360 -145t-359 144t-125 428zM194 1234q2 142 62 221t166 79q54 0 93 -18t91 -52q30 -22 53 -33t47 -11q66 0 78 110h150q-2 -142 -62 -221t-166 -79q-54 0 -93 18t-91 52q-30 22 -53 33t-47 11 q-66 0 -78 -110h-150zM356 546q0 -330 206 -330q208 0 208 330t-206 330q-208 0 -208 -330z" />
<glyph unicode="&#xf6;" horiz-adv-x="1126" d="M78 546q0 282 126 427t360 145t359 -144t125 -428q0 -282 -126 -427t-360 -145t-359 144t-125 428zM224 1368q0 68 38 106t106 38t107 -38t39 -104q0 -68 -38 -105t-108 -37q-68 0 -106 38t-38 102zM356 546q0 -330 206 -330q208 0 208 330t-206 330q-208 0 -208 -330z M614 1368q0 68 38 106t106 38t107 -38t39 -104q0 -68 -38 -105t-108 -37q-68 0 -106 38t-38 102z" />
<glyph unicode="&#xf7;" horiz-adv-x="1158" d="M108 620v234h942v-234h-942zM428 344q0 68 43 110t109 42t109 -42t43 -110t-43 -110t-109 -42t-109 42t-43 110zM428 1128q0 68 43 110t109 42t109 -42t43 -110t-43 -110t-109 -42t-109 42t-43 110z" />
<glyph unicode="&#xf8;" horiz-adv-x="1126" d="M18 0l148 176q-88 142 -88 370q0 282 126 427t360 145q168 0 284 -82l54 76h206v-20l-148 -176q88 -142 88 -370q0 -282 -126 -427t-360 -145q-168 0 -284 82l-54 -76h-206v20zM344 546q0 -72 10 -138l346 434q-48 46 -136 46q-220 0 -220 -342zM426 250q48 -46 136 -46 q220 0 220 342q0 72 -10 138z" />
<glyph unicode="&#xf9;" horiz-adv-x="1160" d="M130 332v760h272v-720q0 -146 152 -146q56 0 100 21t90 67v778h272v-1092h-246v154q-120 -180 -322 -180q-152 0 -235 94t-83 264zM274 1548v20h282l174 -318v-20h-208z" />
<glyph unicode="&#xfa;" horiz-adv-x="1160" d="M130 332v760h272v-720q0 -146 152 -146q56 0 100 21t90 67v778h272v-1092h-246v154q-120 -180 -322 -180q-152 0 -235 94t-83 264zM426 1230v20l190 318h282v-20l-264 -318h-208z" />
<glyph unicode="&#xfb;" horiz-adv-x="1160" d="M130 332v760h272v-720q0 -146 152 -146q56 0 100 21t90 67v778h272v-1092h-246v154q-120 -180 -322 -180q-152 0 -235 94t-83 264zM246 1230v20l204 318h248l204 -318v-20h-190l-142 176l-140 -176h-184z" />
<glyph unicode="&#xfc;" horiz-adv-x="1160" d="M130 332v760h272v-720q0 -146 152 -146q56 0 100 21t90 67v778h272v-1092h-246v154q-120 -180 -322 -180q-152 0 -235 94t-83 264zM234 1368q0 68 38 106t106 38t107 -38t39 -104q0 -68 -38 -105t-108 -37q-68 0 -106 38t-38 102zM624 1368q0 68 38 106t106 38t107 -38 t39 -104q0 -68 -38 -105t-108 -37q-68 0 -106 38t-38 102z" />
<glyph unicode="&#xfd;" horiz-adv-x="1046" d="M28 1092h274l224 -804l220 804h272l-330 -1030q-60 -190 -193 -309t-369 -193l-92 228q138 48 218 98t130 116zM378 1230v20l190 318h282v-20l-264 -318h-208z" />
<glyph unicode="&#xfe;" horiz-adv-x="1162" d="M144 -414v1440v514h272v-562q98 140 274 140q188 0 291 -149t103 -421q0 -274 -104 -424t-292 -150q-84 0 -154 30t-118 86v-504h-272zM416 308q38 -44 88 -67t106 -23q196 0 196 320q0 328 -204 328q-52 0 -96 -22t-90 -70v-466z" />
<glyph unicode="&#xff;" horiz-adv-x="1046" d="M28 1092h274l224 -804l220 804h272l-330 -1030q-60 -190 -193 -309t-369 -193l-92 228q138 48 218 98t130 116zM186 1368q0 68 38 106t106 38t107 -38t39 -104q0 -68 -38 -105t-108 -37q-68 0 -106 38t-38 102zM576 1368q0 68 38 106t106 38t107 -38t39 -104 q0 -68 -38 -105t-108 -37q-68 0 -106 38t-38 102z" />
<glyph unicode="&#x152;" horiz-adv-x="1928" d="M96 724q0 360 159 542t461 182h326h798v-246h-608v-338h440v-248h-440v-370h636v-246h-904h-248q-302 0 -461 182t-159 542zM380 724q0 -478 336 -478h248v956h-248q-336 0 -336 -478z" />
<glyph unicode="&#x153;" horiz-adv-x="1762" d="M78 546q0 282 127 427t353 145q224 0 344 -156q52 76 138 116t194 40q220 0 341 -138t121 -388q0 -74 -12 -132h-652q34 -240 266 -240q124 0 258 64l96 -202q-80 -50 -180 -78t-204 -28q-240 0 -372 148q-120 -150 -340 -150q-226 0 -352 145t-126 427zM356 546 q0 -330 200 -330q202 0 202 330t-200 330q-202 0 -202 -330zM1030 642h396q-2 114 -54 176t-144 62q-172 0 -198 -238z" />
<glyph unicode="&#x178;" horiz-adv-x="1180" d="M22 1448h294l276 -670l274 670h292l-432 -970v-478h-276v478zM236 1684q0 68 38 106t106 38t107 -38t39 -104q0 -68 -38 -105t-108 -37q-68 0 -106 38t-38 102zM650 1684q0 68 38 106t106 38t107 -38t39 -104q0 -68 -38 -105t-108 -37q-68 0 -106 38t-38 102z" />
<glyph unicode="&#x2c6;" horiz-adv-x="1000" d="M172 1230v20l204 318h248l204 -318v-20h-190l-140 176l-142 -176h-184z" />
<glyph unicode="&#x2dc;" horiz-adv-x="1000" d="M130 1234q2 142 62 221t166 79q54 0 93 -18t91 -52q30 -22 53 -33t47 -11q66 0 78 110h150q-2 -142 -62 -221t-166 -79q-54 0 -93 18t-91 52q-30 22 -53 33t-47 11q-66 0 -78 -110h-150z" />
<glyph unicode="&#x2000;" horiz-adv-x="1005" />
<glyph unicode="&#x2001;" horiz-adv-x="2010" />
<glyph unicode="&#x2002;" horiz-adv-x="1005" />
<glyph unicode="&#x2003;" horiz-adv-x="2010" />
<glyph unicode="&#x2004;" horiz-adv-x="670" />
<glyph unicode="&#x2005;" horiz-adv-x="502" />
<glyph unicode="&#x2006;" horiz-adv-x="335" />
<glyph unicode="&#x2007;" horiz-adv-x="335" />
<glyph unicode="&#x2008;" horiz-adv-x="251" />
<glyph unicode="&#x2009;" horiz-adv-x="402" />
<glyph unicode="&#x200a;" horiz-adv-x="111" />
<glyph unicode="&#x2010;" horiz-adv-x="826" d="M78 498v210h670v-210h-670z" />
<glyph unicode="&#x2011;" horiz-adv-x="826" d="M78 498v210h670v-210h-670z" />
<glyph unicode="&#x2012;" horiz-adv-x="826" d="M78 498v210h670v-210h-670z" />
<glyph unicode="&#x2013;" horiz-adv-x="1228" d="M78 508v200h1072v-200h-1072z" />
<glyph unicode="&#x2014;" horiz-adv-x="1842" d="M78 508v200h1686v-200h-1686z" />
<glyph unicode="&#x2018;" horiz-adv-x="462" d="M76 1136q0 122 64 224t206 206l104 -108q-68 -72 -95 -143t-27 -177q0 -72 12 -156h-252q-12 84 -12 154z" />
<glyph unicode="&#x2019;" horiz-adv-x="422" d="M12 1024q68 72 95 143t27 177q0 72 -12 156h252q12 -84 12 -154q0 -122 -64 -224t-206 -206z" />
<glyph unicode="&#x201a;" horiz-adv-x="462" d="M12 -232q68 72 95 143t27 177q0 72 -12 156h252q12 -84 12 -154q0 -122 -64 -224t-206 -206z" />
<glyph unicode="&#x201c;" horiz-adv-x="838" d="M76 1136q0 122 64 224t206 206l104 -108q-68 -72 -95 -143t-27 -177q0 -72 12 -156h-252q-12 84 -12 154zM452 1136q0 122 64 224t206 206l104 -108q-68 -72 -95 -143t-27 -177q0 -72 12 -156h-252q-12 84 -12 154z" />
<glyph unicode="&#x201d;" horiz-adv-x="798" d="M12 1024q68 72 95 143t27 177q0 72 -12 156h252q12 -84 12 -154q0 -122 -64 -224t-206 -206zM388 1024q68 72 95 143t27 177q0 72 -12 156h252q12 -84 12 -154q0 -122 -64 -224t-206 -206z" />
<glyph unicode="&#x201e;" horiz-adv-x="838" d="M12 -232q68 72 95 143t27 177q0 72 -12 156h252q12 -84 12 -154q0 -122 -64 -224t-206 -206zM388 -232q68 72 95 143t27 177q0 72 -12 156h252q12 -84 12 -154q0 -122 -64 -224t-206 -206z" />
<glyph unicode="&#x2022;" horiz-adv-x="934" d="M136 694q0 158 87 245t243 87q158 0 245 -87t87 -245q0 -156 -87 -244t-245 -88q-156 0 -243 88t-87 244z" />
<glyph unicode="&#x2026;" horiz-adv-x="1540" d="M98 134q0 76 44 118t124 42q78 0 123 -43t45 -115q0 -76 -44 -119t-124 -43q-78 0 -123 43t-45 117zM602 134q0 76 44 118t124 42q78 0 123 -43t45 -115q0 -76 -44 -119t-124 -43q-78 0 -123 43t-45 117zM1106 134q0 76 44 118t124 42q78 0 123 -43t45 -115 q0 -76 -44 -119t-124 -43q-78 0 -123 43t-45 117z" />
<glyph unicode="&#x202f;" horiz-adv-x="402" />
<glyph unicode="&#x2039;" horiz-adv-x="714" d="M34 582l480 552l162 -156l-348 -394l348 -398l-164 -156z" />
<glyph unicode="&#x203a;" horiz-adv-x="714" d="M38 186l348 394l-348 398l164 156l478 -552l-480 -552z" />
<glyph unicode="&#x205f;" horiz-adv-x="502" />
<glyph unicode="&#x20ac;" horiz-adv-x="1238" d="M96 484v174h146q-2 20 -2 64t2 64h-146v174h164q46 248 188 381t366 133q86 0 173 -27t159 -75l-92 -206q-138 64 -238 64q-216 0 -274 -270h372v-174h-392q-2 -20 -2 -64t2 -64h392v-174h-372q60 -262 274 -262q106 0 238 56l92 -204q-154 -100 -336 -100 q-222 0 -363 132t-187 378h-164z" />
<glyph unicode="&#x2122;" horiz-adv-x="1898" d="M52 1256v192h654v-192h-220v-716h-212v716h-222zM830 540v908h244l212 -544l212 544h244v-908h-206v576l-160 -406h-182l-162 408v-578h-202z" />
<glyph unicode="&#x25fc;" horiz-adv-x="1090" d="M0 0v1090h1090v-1090h-1090z" />
<glyph unicode="&#xfb03;" horiz-adv-x="2056" d="M10 858v234h168v82q0 190 115 295t327 105q68 0 122 -10v-236q-58 8 -122 8q-172 0 -172 -162v-82h256v-234h-256v-858h-272v858h-166zM754 858v234h168v82q0 190 115 295t327 105q68 0 122 -10v-236q-58 8 -122 8q-172 0 -172 -162v-82h256v-234h-256v-858h-272v858 h-166zM1610 1388q0 74 43 115t119 41t119 -41t43 -113q0 -74 -43 -115t-119 -41t-119 41t-43 113zM1636 0v1092h272v-1092h-272z" />
<glyph unicode="&#xfb04;" horiz-adv-x="2140" d="M10 858v234h168v82q0 190 115 295t327 105q68 0 122 -10v-236q-58 8 -122 8q-172 0 -172 -162v-82h256v-234h-256v-858h-272v858h-166zM754 858v234h168v82q0 190 115 295t327 105q68 0 122 -10v-236q-58 8 -122 8q-172 0 -172 -162v-82h256v-234h-256v-858h-272v858 h-166zM1628 278v1262h272v-1202q0 -58 22 -84t74 -26q32 0 70 6l18 -230q-78 -18 -162 -18q-148 0 -221 72t-73 220z" />
</font>
</defs>
</svg>
